<?xml version="1.0" encoding="UTF-8" standalone="no"?>

<svg viewBox="0 0 1713 1713" version="1.1" xmlns="http://www.w3.org/2000/svg" xmlns:xlink="http://www.w3.org/1999/xlink" xml:space="preserve" style="fill-rule:evenodd;clip-rule:evenodd;stroke-linejoin:round;stroke-miterlimit:2;">
  <g>
    <path d="M855.983,0.537c472.746,0 855.98,383.242 855.98,855.984c-0,472.746 -383.234,855.979 -855.98,855.979c-472.746,0 -855.983,-383.233 -855.983,-855.979c-0,-472.742 383.237,-855.984 855.983,-855.984Z" style="fill:#cd6699;" />
    <path d="M685.871,1141.65c12.454,46.067 11.087,89.025 -1.775,127.929c-1.429,4.321 -3.004,8.596 -4.713,12.821c-1.708,4.217 -3.558,8.388 -5.541,12.504c-9.921,20.584 -23.234,39.85 -39.538,57.634c-49.733,54.258 -119.221,74.775 -149.016,57.487c-32.175,-18.65 -16.059,-95.15 41.604,-156.1c62.033,-65.579 151.287,-107.742 151.287,-107.742l-0.137,-0.266c2.571,-1.384 5.183,-2.809 7.829,-4.267Zm707.042,-774.738c-38.763,-152.025 -290.838,-202.004 -529.413,-117.245c-141.979,50.441 -295.683,129.608 -406.2,232.979c-131.404,122.908 -152.358,229.883 -143.725,274.583c30.467,157.725 246.583,260.821 335.425,337.313l-0,0.462c-26.196,12.896 -217.933,109.929 -262.804,209.129c-47.346,104.655 7.533,179.754 43.871,189.863c112.579,31.321 228.104,-25.017 290.187,-117.621c59.913,-89.367 54.925,-204.767 28.888,-262.171c35.916,-9.475 77.787,-13.721 131,-7.504c150.154,17.538 179.616,111.296 173.983,150.525c-5.629,39.242 -37.125,60.817 -47.654,67.329c-10.534,6.517 -13.746,8.771 -12.859,13.613c1.275,7.041 6.15,6.779 15.13,5.258c12.358,-2.083 78.845,-31.917 81.687,-104.346c3.621,-91.958 -84.504,-194.825 -240.541,-192.137c-64.263,1.108 -104.671,7.22 -133.859,18.083c-2.158,-2.458 -4.354,-4.904 -6.625,-7.325c-96.467,-102.921 -274.796,-175.725 -267.233,-314.088c2.75,-50.299 20.233,-182.754 342.662,-343.416c264.125,-131.613 475.567,-95.396 512.109,-15.129c52.195,114.671 -113.005,327.804 -387.3,358.545c-104.504,11.717 -159.53,-28.787 -173.217,-43.87c-14.412,-15.88 -16.558,-16.596 -21.937,-13.617c-8.767,4.854 -3.213,18.875 -0,27.233c8.187,21.313 41.795,59.109 99.091,77.909c50.4,16.541 173.1,25.629 321.488,-31.767c166.187,-64.288 295.962,-243.112 257.846,-392.588Z" style="fill:#fff;fill-rule:nonzero;" />
  </g>
</svg>