<?xml version="1.0" encoding="UTF-8" standalone="no"?><!DOCTYPE svg PUBLIC "-//W3C//DTD SVG 1.1//EN" "http://www.w3.org/Graphics/SVG/1.1/DTD/svg11.dtd"><svg width="100%" height="100%" viewBox="0 0 106 105" version="1.1" xmlns="http://www.w3.org/2000/svg" xmlns:xlink="http://www.w3.org/1999/xlink" xml:space="preserve" xmlns:serif="http://www.serif.com/" style="fill-rule:evenodd;clip-rule:evenodd;stroke-linejoin:round;stroke-miterlimit:2;"><rect id="Artboard1" x="0" y="0" width="105.034" height="104.966" style="fill:none;"/><clipPath id="_clip1"><rect id="Artboard11" serif:id="Artboard1" x="0" y="0" width="105.034" height="104.966"/></clipPath><g clip-path="url(#_clip1)"><path d="M92.565,0l-80.079,0c-6.889,0 -12.477,5.58 -12.486,12.469l0,79.961c-0.013,3.32 1.296,6.509 3.639,8.862c2.343,2.352 5.527,3.674 8.847,3.674l80.079,0c3.317,-0.004 6.496,-1.328 8.836,-3.68c2.339,-2.352 3.646,-5.539 3.633,-8.856l-0,-79.961c-0.009,-6.883 -5.586,-12.46 -12.469,-12.469Zm-47.267,75.603c-0.004,1.11 -0.45,2.172 -1.24,2.952c-0.789,0.78 -1.857,1.214 -2.966,1.205l-17.5,-0c-2.289,-0.01 -4.14,-1.868 -4.14,-4.157l0,-52.079c0,-2.289 1.851,-4.147 4.14,-4.156l17.5,-0c2.291,0.009 4.147,1.864 4.156,4.156l0.05,52.079Zm40.385,-23.911c-0,1.111 -0.445,2.176 -1.235,2.957c-0.791,0.781 -1.861,1.213 -2.972,1.2l-17.5,-0c-2.291,-0.01 -4.147,-1.865 -4.156,-4.157l-0,-28.168c0.009,-2.292 1.865,-4.147 4.156,-4.156l17.5,-0c2.289,0.009 4.14,1.867 4.14,4.156l0.067,28.168Z" style="fill:url(#_Linear2);"/></g><defs><linearGradient id="_Linear2" x1="0" y1="0" x2="1" y2="0" gradientUnits="userSpaceOnUse" gradientTransform="matrix(6.42733e-15,-104.966,104.966,6.42733e-15,52.5675,104.966)"><stop offset="0" style="stop-color:#0052cc;stop-opacity:1"/><stop offset="1" style="stop-color:#2684ff;stop-opacity:1"/></linearGradient></defs></svg>