<?xml version="1.0" encoding="UTF-8" standalone="no"?>
<!DOCTYPE svg PUBLIC "-//W3C//DTD SVG 1.1//EN" "http://www.w3.org/Graphics/SVG/1.1/DTD/svg11.dtd">
<svg width="100%" height="100%" viewBox="0 0 100 100" version="1.1" xmlns="http://www.w3.org/2000/svg" xmlns:xlink="http://www.w3.org/1999/xlink" xml:space="preserve" style="fill-rule:evenodd;clip-rule:evenodd;stroke-linejoin:round;stroke-miterlimit:2;">
	<path d="M85.889,77.585c-7.903,8.908 -19.258,14.014 -31.166,14.014c-22.855,-0 -41.662,-18.807 -41.662,-41.662c0,-21.587 16.779,-39.781 38.296,-41.525c1.691,-0.121 3.298,0.79 4.063,2.303c0.755,1.521 0.507,3.357 -0.623,4.625c-5.411,6.095 -8.402,13.969 -8.402,22.119c0,18.277 15.04,33.317 33.317,33.317c0.005,-0 0.011,-0 0.016,-0c0.926,-0 1.817,-0.042 2.706,-0.114c1.691,-0.125 3.298,0.783 4.065,2.295c0.759,1.519 0.517,3.357 -0.61,4.628Z" style="fill-rule:nonzero;" />
</svg>
