<?xml version="1.0" encoding="UTF-8" standalone="no"?>
<!DOCTYPE svg PUBLIC "-//W3C//DTD SVG 1.1//EN" "http://www.w3.org/Graphics/SVG/1.1/DTD/svg11.dtd">
<svg width="100%" height="100%" viewBox="0 0 1738 1738" version="1.1" xmlns="http://www.w3.org/2000/svg" xmlns:xlink="http://www.w3.org/1999/xlink" xml:space="preserve" xmlns:serif="http://www.serif.com/" style="fill-rule:evenodd;clip-rule:evenodd;stroke-linejoin:round;stroke-miterlimit:2;">
	<path d="M868.054,501.738c-201.387,-0 -366.316,164.929 -366.316,366.316c-0,201.392 164.929,366.321 366.316,366.321c201.392,0 366.321,-164.929 366.321,-366.321c0,-201.387 -164.929,-366.316 -366.321,-366.316Z" style="fill-rule:nonzero;" />
	<path d="M868.054,390.625c39.934,0 72.917,-32.987 72.917,-71.179l-0,-203.125c-0,-39.934 -32.983,-71.184 -72.917,-71.184c-39.929,0 -72.916,32.988 -72.916,71.184l-0,203.125c-0,38.192 32.987,71.179 72.916,71.179Z" style="fill-rule:nonzero;" />
	<path d="M428.821,529.513c13.887,13.891 32.983,20.833 50.346,20.833c19.096,-0 36.458,-6.942 50.346,-20.833c27.779,-27.775 27.779,-72.917 -0,-102.43l-144.096,-144.096c-27.779,-27.779 -72.917,-27.779 -102.43,0c-27.779,27.775 -27.779,72.917 0,102.43l145.834,144.096Z" style="fill-rule:nonzero;" />
	<path d="M390.625,868.054c0,-39.929 -32.987,-71.179 -72.917,-71.179l-201.387,0c-39.933,0 -72.917,32.988 -72.917,71.179c0,38.196 32.984,71.184 72.917,71.184l203.125,-0c38.192,-0 71.179,-31.25 71.179,-71.184Z" style="fill-rule:nonzero;" />
	<path d="M428.821,1206.6l-144.1,144.1c-27.775,27.775 -27.775,72.917 -0,102.429c13.892,13.888 32.987,20.833 50.35,20.833c19.096,0 36.458,-6.945 50.346,-20.833l144.096,-144.096c27.779,-27.779 27.779,-72.916 -0,-102.433c-27.775,-29.513 -72.917,-29.513 -100.692,-0Z" style="fill-rule:nonzero;" />
	<path d="M868.054,1345.49c-39.929,-0.001 -72.916,32.983 -72.916,71.179l-0,203.125c-0,39.929 32.987,71.179 72.916,71.179c39.934,-0 72.917,-32.984 72.917,-71.179l-0,-201.388c-0,-39.933 -32.983,-72.917 -72.917,-72.917Z" style="fill-rule:nonzero;" />
	<path d="M1307.29,1206.6c-27.779,-27.775 -72.917,-27.775 -102.429,-0c-27.78,27.779 -27.78,74.654 -0,102.433l144.095,144.096c13.888,13.888 32.988,20.833 50.346,20.833c19.1,0 36.459,-6.945 50.35,-20.833c27.775,-27.779 27.775,-74.654 0,-102.429l-142.362,-144.1Z" style="fill-rule:nonzero;" />
	<path d="M1619.79,796.875l-201.388,0c-39.933,0 -72.917,32.988 -72.917,71.179c0,38.196 32.984,71.184 72.917,71.184l203.125,-0c39.929,-0 72.917,-32.988 72.917,-71.184c-0,-38.191 -34.725,-71.179 -74.654,-71.179Z" style="fill-rule:nonzero;" />
	<path d="M1256.95,552.083c19.096,0 36.458,-6.945 50.346,-20.833l144.096,-144.096c27.779,-27.779 27.779,-74.654 -0,-102.433c-27.775,-27.775 -72.917,-27.775 -102.43,-0l-144.095,144.1c-27.78,27.775 -27.78,74.65 -0,102.429c15.625,12.154 32.983,20.833 52.083,20.833Z" style="fill-rule:nonzero;" />
</svg>
