<svg viewBox="0 0 1210 1372" version="1.1" xmlns="http://www.w3.org/2000/svg" xmlns:xlink="http://www.w3.org/1999/xlink" xml:space="preserve" style="fill-rule:evenodd;clip-rule:evenodd;stroke-linejoin:round;stroke-miterlimit:2;">
   <rect id="Artboard1" x="0" y="0" width="1209.11" height="1371.27" style="fill:none;" />
   <clipPath id="_clip1">
      <rect x="0" y="0" width="1209.11" height="1371.27" />
   </clipPath>
   <g clip-path="url(#_clip1)">
      <g id="Calque-1">
         <path id="polygon2989" d="M1209.11,-0l-110.153,1234l-495.143,137.27l-493.78,-137.077l-110.037,-1234.19l1209.11,-0Z" style="fill:#264de4;fill-rule:nonzero;" />
         <path id="polygon2991" d="M1004.66,1155.42l94.133,-1054.51l-494.233,0l-0,1165.43l400.1,-110.923Z" style="fill:#2965f1;fill-rule:nonzero;" />
         <path id="polygon2993" d="M252.257,558.657l13.566,151.366l338.734,0l-0,-151.366l-352.3,-0Z" style="fill:#ebebeb;fill-rule:nonzero;" />
         <path id="polygon2995" d="M604.557,252.283l-379.56,0l13.76,151.37l365.8,0l-0,-151.37Z" style="fill:#ebebeb;fill-rule:nonzero;" />
         <path id="polygon2997" d="M604.557,1109.26l-0,-157.486l-0.664,0.176l-168.58,-45.52l-10.776,-120.723l-151.95,-0l21.206,237.67l310.067,86.077l0.697,-0.194Z" style="fill:#ebebeb;fill-rule:nonzero;" />
         <path id="polygon3005" d="M790.427,710.023l-17.57,196.314l-168.824,45.566l0,157.48l310.314,-86.003l2.276,-25.573l35.57,-398.504l3.694,-40.646l27.326,-306.374l-379.18,0l0,151.37l213.294,0l-13.774,155.004l-199.52,-0l0,151.366l186.394,0Z" style="fill:#fff;fill-rule:nonzero;" />
      </g>
   </g>
</svg>