<?xml version="1.0" encoding="UTF-8"?>
<svg width="518px" height="611px" viewBox="0 0 518 611" version="1.1" xmlns="http://www.w3.org/2000/svg" xmlns:xlink="http://www.w3.org/1999/xlink">
    <title>BG Logo</title>
    <defs>
        <filter id="filter-1">
            <feColorMatrix in="SourceGraphic" type="matrix" values="0 0 0 0 0.000000 0 0 0 0 0.000000 0 0 0 0 0.000000 0 0 0 0.030000 0"></feColorMatrix>
        </filter>
        <rect id="path-2" x="0" y="0" width="517.675624" height="609.884938"></rect>
        <linearGradient x1="-1.39694821e-05%" y1="50.0004743%" x2="99.9998786%" y2="50.0004743%" id="linearGradient-4">
            <stop stop-color="#399DD2" offset="0%"></stop>
            <stop stop-color="#EFCB16" offset="34%"></stop>
            <stop stop-color="#F49F1D" offset="62%"></stop>
            <stop stop-color="#F08721" offset="87%"></stop>
            <stop stop-color="#F08721" offset="100%"></stop>
        </linearGradient>
        <linearGradient x1="0.0493117007%" y1="49.9997995%" x2="100.028206%" y2="49.9997995%" id="linearGradient-5">
            <stop stop-color="#399DD2" offset="0%"></stop>
            <stop stop-color="#EFCB16" offset="34%"></stop>
            <stop stop-color="#F49F1D" offset="62%"></stop>
            <stop stop-color="#F08721" offset="87%"></stop>
            <stop stop-color="#F08721" offset="100%"></stop>
        </linearGradient>
        <path d="M248.938782,6.5973037 L181.337278,161.010665 C180.711338,162.395722 178.786782,162.510959 178.042887,161.195155 L115.882331,79.4075363 C110.297278,71.6512169 100.351789,72.4152144 94.7183308,79.5022742 L16.267203,212.927035 C2.91381955,235.087948 -2.27174436,258.977966 1.92177444,285.34225 C2.40861654,288.458628 2.96500752,291.413786 3.5703609,294.229884 C6.70228571,308.544725 11.5656992,319.851223 18.1522556,328.18705 C24.7338045,336.520107 33.2421353,342.291363 43.6305113,345.476994 C54.0394737,348.685894 66.4887218,350.280926 81.0222105,350.280926 L175.098466,350.280926 C184.582707,349.932446 192.650376,351.157944 199.327068,353.949111 C206.001534,356.721441 211.449158,360.874396 215.671053,366.437339 C219.913534,371.99862 222.94809,378.856869 224.802541,387.00322 C226.566857,394.692503 227.492135,403.395648 227.584496,413.093263 C227.584496,414.083302 228.398496,414.917106 229.416135,414.917106 L286.378887,414.917106 C287.373714,414.917106 288.187158,414.083302 288.208301,413.093263 C288.439759,392.958966 292.499188,377.517796 300.358211,366.804657 C308.472617,355.795669 322.080827,350.280926 341.183398,350.280926 L434.239789,350.280926 C448.775504,350.280926 461.294301,348.685894 471.773368,345.476994 C482.25188,342.291363 490.780797,336.520107 497.38794,328.18705 C503.974496,319.851223 508.842917,308.544725 511.969835,294.229884 C512.526226,291.667528 513.036436,289.015421 513.502692,286.194337 C517.904857,259.280462 508.116827,233.979902 492.565699,210.777981 L401.498406,65.9436738 C396.259429,59.6416643 388.286902,59.5491425 382.928857,65.6899314 C382.838722,65.7818992 332.297278,120.959248 332.297278,120.959248 C331.535023,122.1853 329.72397,122.116047 329.075218,120.822958 L267.876662,5.99951308 C265.910932,2.20445679 262.233744,0.336845873 258.561564,0.336845873 C254.66015,0.336845873 250.765414,2.44933487 248.938782,6.5973037 L248.938782,6.5973037 Z" id="path-6"></path>
    </defs>
    <g id="Version-2" stroke="none" stroke-width="1" fill="none" fill-rule="evenodd">
        <g id="BG-Logo" transform="translate(-782.000000, -273.000000)" filter="url(#filter-1)">
            <g transform="translate(782.000000, 273.000000)">
                <rect id="Logo" x="0" y="0" width="518" height="611"></rect>
                <g id="Clipped">
                    <mask id="mask-3" fill="white">
                        <use xlink:href="#path-2"></use>
                    </mask>
                    <g id="Rectangle"></g>
                    <g id="Group" mask="url(#mask-3)">
                        <path d="M228.458586,0 C228.458586,21.0434487 224.404165,37.0757609 216.289759,48.0958288 C208.17591,59.123653 194.569925,64.6339639 175.464571,64.6339639 L82.4059549,64.6339639 C67.8702406,64.6339639 55.3631278,66.2378599 44.879609,69.4329095 C34.4010977,72.6323913 25.8627218,78.3964447 19.2694887,86.7278398 C12.6762556,95.0586809 7.82174436,106.384015 4.68981955,120.684452 C1.56512782,134.994862 1.68019316e-14,153.173458 1.68019316e-14,175.22135 L57.3038195,175.22135 C57.475188,168.494405 58.1940451,162.38852 59.4598346,156.920315 C60.7278496,151.451555 62.925594,146.820479 66.0530677,143.032625 C69.1849925,139.244217 73.4502857,136.340583 78.8567368,134.320616 C84.2698647,132.300649 91.2826165,131.291773 99.9044511,131.291773 L190.424812,131.291773 C209.360466,131.797596 224.404165,126.917209 235.559805,116.647288 C246.715444,106.384015 253.98803,91.5683372 257.368105,72.2102259 L260.409338,72.2102259 C267.510556,110.587386 289.907519,130.282898 327.605233,131.291773 L418.125594,131.291773 C426.747429,131.291773 433.762406,132.300649 439.171083,134.320616 C444.579759,136.340583 448.85006,139.244217 451.976977,143.032625 C455.104451,146.820479 457.29997,151.451555 458.570211,156.920315 C459.838782,162.38852 460.554857,168.494405 460.724,175.22135 L517.777444,175.22135 C517.777444,153.173458 516.212316,134.994862 513.085398,120.684452 C509.957925,106.384015 505.098406,95.0586809 498.507955,86.7278398 C491.914722,78.3964447 483.420301,72.6323913 473.022466,69.4329095 C462.625188,66.2378599 450.159805,64.6339639 435.62409,64.6339639 L341.55006,64.6339639 C332.08418,64.9752419 324.014286,63.7519596 317.335368,60.9746432 C310.658677,58.1956647 305.206045,54.0310752 300.979699,48.4769965 C296.755579,42.9229177 293.711564,36.0668854 291.850436,27.899481 C289.993203,19.7370629 289.063474,10.4388979 289.063474,0 L228.458586,0 Z" id="Path" fill="url(#linearGradient-4)" fill-rule="nonzero"></path>
                        <path d="M250.051564,201.613335 L182.45006,356.026697 C181.82412,357.411754 179.899564,357.52699 179.155669,356.211186 L116.995113,274.423568 C111.41006,266.667248 101.464571,267.431246 95.8311128,274.518306 L17.379985,407.943067 C4.0266015,430.103979 -1.15896241,453.993997 3.03455639,480.358281 C3.5213985,483.474659 4.07778947,486.429817 4.68314286,489.245915 C7.81506767,503.560757 12.6784812,514.867254 19.2650376,523.203082 C25.8465865,531.536139 34.3549173,537.307395 44.7432932,540.493026 C55.1522556,543.701926 67.6015038,545.296958 82.1349925,545.296958 L176.211248,545.296958 C185.695489,544.948477 193.763158,546.173976 200.43985,548.965143 C207.114316,551.737473 212.56194,555.890428 216.783835,561.453371 C221.026316,567.014652 224.060872,573.8729 225.915323,582.019252 C227.679639,589.708535 228.604917,598.411679 228.697278,608.109294 C228.697278,609.099333 229.511278,609.933138 230.528917,609.933138 L287.491669,609.933138 C288.486496,609.933138 289.29994,609.099333 289.321083,608.109294 C289.552541,587.974997 293.61197,572.533827 301.470992,561.820688 C309.585398,550.811701 323.193609,545.296958 342.29618,545.296958 L435.352571,545.296958 C449.888286,545.296958 462.407083,543.701926 472.88615,540.493026 C483.364662,537.307395 491.893579,531.536139 498.500722,523.203082 C505.087278,514.867254 509.955699,503.560757 513.082617,489.245915 C513.639008,486.68356 514.149218,484.031452 514.615474,481.210368 C519.017639,454.296494 509.229609,428.995934 493.678481,405.794012 L402.611188,260.959705 C397.372211,254.657696 389.399684,254.565174 384.041639,260.705963 C383.951504,260.797931 333.41006,315.975279 333.41006,315.975279 C332.647805,317.201332 330.836752,317.132079 330.188,315.83899 L268.989444,201.015545 C267.023714,197.220488 263.346526,195.352877 259.674346,195.352877 C255.772932,195.352877 251.878195,197.465366 250.051564,201.613335 L250.051564,201.613335 Z" id="Path" fill="url(#linearGradient-5)" fill-rule="nonzero"></path>
                        <g id="Clipped" transform="translate(1.112782, 195.016032)">
                            <mask id="mask-7" fill="white">
                                <use xlink:href="#path-6"></use>
                            </mask>
                            <g id="Path"></g>
                            <polygon id="Path" stroke="#FFFFFF" stroke-width="1.34264232" fill="#FFFFFF" mask="url(#mask-7)" points="219.906301 60.5707606 243.831113 82.7316732 265.530361 59.4627149 286.673218 74.9753538 301.695774 57.2466237 276.65818 -3.69588621 239.936376 -9.23611438 219.906301 60.5707606"></polygon>
                        </g>
                    </g>
                </g>
            </g>
        </g>
    </g>
</svg>