<?xml version="1.0" encoding="UTF-8" standalone="no"?><!DOCTYPE svg PUBLIC "-//W3C//DTD SVG 1.1//EN" "http://www.w3.org/Graphics/SVG/1.1/DTD/svg11.dtd">
<svg width="100%" height="100%" viewBox="0 0 931 1101" version="1.1" xmlns="http://www.w3.org/2000/svg"
     xml:space="preserve" xmlns:serif="http://www.serif.com/"
     style="fill-rule:evenodd;clip-rule:evenodd;stroke-linejoin:round;stroke-miterlimit:1.5;"><rect id="Logo" x="0" y="0" width="930.417" height="1100.83" style="fill:none;"/><clipPath id="_clip1"><rect x="0" y="0" width="930.417" height="1100.83"/></clipPath><g clip-path="url(#_clip1)"><g><path d="M410.608,0c0,37.983 -7.287,66.921 -21.871,86.812c-14.583,19.905 -39.037,29.851 -73.375,29.851l-167.254,-0c-26.125,-0 -48.604,2.895 -67.446,8.662c-18.833,5.775 -34.179,16.179 -46.029,31.217c-11.85,15.037 -20.575,35.479 -26.204,61.291c-5.616,25.83 -8.429,58.642 -8.429,98.438l102.992,-0c0.308,-12.142 1.6,-23.163 3.875,-33.033c2.279,-9.871 6.229,-18.23 11.85,-25.067c5.629,-6.838 13.295,-12.079 23.012,-15.725c9.729,-3.646 22.333,-5.467 37.829,-5.467l162.692,0c34.033,0.913 61.071,-7.896 81.121,-26.433c20.05,-18.525 33.121,-45.267 39.196,-80.208l5.466,-0c12.763,69.27 53.017,104.82 120.771,106.641l162.692,0c15.496,0 28.104,1.821 37.825,5.467c9.721,3.646 17.396,8.887 23.016,15.725c5.621,6.837 9.567,15.196 11.85,25.067c2.28,9.87 3.567,20.891 3.871,33.033l102.542,-0c-0,-39.796 -2.813,-72.608 -8.433,-98.438c-5.621,-25.812 -14.355,-46.254 -26.2,-61.291c-11.85,-15.038 -27.117,-25.442 -45.805,-31.217c-18.687,-5.767 -41.091,-8.662 -67.216,-8.662l-169.079,-0c-17.013,0.616 -31.517,-1.592 -43.521,-6.605c-12,-5.016 -21.8,-12.533 -29.396,-22.558c-7.592,-10.025 -13.063,-22.4 -16.408,-37.142c-3.338,-14.733 -5.009,-31.516 -5.009,-50.358l-108.925,0Z" style="fill:url(#_Linear2);fill-rule:nonzero;"/><path d="M449.417,363.908l-121.5,278.713c-1.125,2.5 -4.584,2.708 -5.921,0.333l-111.721,-147.625c-10.038,-14 -27.913,-12.621 -38.038,0.171l-141,240.829c-24,40 -33.32,83.121 -25.783,130.708c0.875,5.625 1.875,10.959 2.963,16.042c5.629,25.838 14.37,46.246 26.208,61.292c11.829,15.041 27.121,25.458 45.792,31.208c18.708,5.792 41.083,8.671 67.204,8.671l169.083,-0c17.046,-0.629 31.546,1.583 43.546,6.621c11.996,5.004 21.787,12.5 29.375,22.541c7.625,10.038 13.079,22.417 16.412,37.121c3.171,13.879 4.834,29.588 5,47.092c0,1.787 1.463,3.292 3.292,3.292l102.379,-0c1.788,-0 3.25,-1.505 3.288,-3.292c0.416,-36.342 7.712,-64.213 21.837,-83.55c14.584,-19.871 39.042,-29.825 73.375,-29.825l167.25,-0c26.125,-0 48.625,-2.879 67.459,-8.671c18.833,-5.75 34.162,-16.167 46.037,-31.208c11.838,-15.046 20.588,-35.454 26.208,-61.292c1,-4.625 1.917,-9.412 2.755,-14.504c7.912,-48.579 -9.68,-94.246 -37.63,-136.125l-163.675,-261.423c-9.416,-11.375 -23.745,-11.542 -33.375,-0.458c-0.162,0.166 -91,99.76 -91,99.76c-1.37,2.213 -4.625,2.088 -5.791,-0.246l-109.992,-207.254c-3.533,-6.85 -10.142,-10.221 -16.742,-10.221c-7.012,0 -14.012,3.813 -17.295,11.3Z" style="fill:url(#_Linear3);fill-rule:nonzero;"/><clipPath id="_clip4"><path d="M449.417,363.908l-121.5,278.713c-1.125,2.5 -4.584,2.708 -5.921,0.333l-111.721,-147.625c-10.038,-14 -27.913,-12.621 -38.038,0.171l-141,240.829c-24,40 -33.32,83.121 -25.783,130.708c0.875,5.625 1.875,10.959 2.963,16.042c5.629,25.838 14.37,46.246 26.208,61.292c11.829,15.041 27.121,25.458 45.792,31.208c18.708,5.792 41.083,8.671 67.204,8.671l169.083,-0c17.046,-0.629 31.546,1.583 43.546,6.621c11.996,5.004 21.787,12.5 29.375,22.541c7.625,10.038 13.079,22.417 16.412,37.121c3.171,13.879 4.834,29.588 5,47.092c0,1.787 1.463,3.292 3.292,3.292l102.379,-0c1.788,-0 3.25,-1.505 3.288,-3.292c0.416,-36.342 7.712,-64.213 21.837,-83.55c14.584,-19.871 39.042,-29.825 73.375,-29.825l167.25,-0c26.125,-0 48.625,-2.879 67.459,-8.671c18.833,-5.75 34.162,-16.167 46.037,-31.208c11.838,-15.046 20.588,-35.454 26.208,-61.292c1,-4.625 1.917,-9.412 2.755,-14.504c7.912,-48.579 -9.68,-94.246 -37.63,-136.125l-163.675,-261.423c-9.416,-11.375 -23.745,-11.542 -33.375,-0.458c-0.162,0.166 -91,99.76 -91,99.76c-1.37,2.213 -4.625,2.088 -5.791,-0.246l-109.992,-207.254c-3.533,-6.85 -10.142,-10.221 -16.742,-10.221c-7.012,0 -14.012,3.813 -17.295,11.3Z" clip-rule="nonzero"/></clipPath><g clip-path="url(#_clip4)"><path d="M397.237,461.329l43,40l39,-42l38,28l27,-32l-45,-110l-66,-10l-36,126Z" style="fill:#fff;stroke:#fff;stroke-width:12.5px;"/></g></g></g><g id="Layer-1" serif:id="Layer 1"></g><defs><linearGradient id="_Linear2" x1="0" y1="0" x2="1" y2="0" gradientUnits="userSpaceOnUse" gradientTransform="matrix(930.599,0,0,930.599,-0.00013,158.137)"><stop offset="0" style="stop-color:#399dd2;stop-opacity:1"/><stop offset="0.34" style="stop-color:#efcb16;stop-opacity:1"/><stop offset="0.62" style="stop-color:#f49f1d;stop-opacity:1"/><stop offset="0.87" style="stop-color:#f08721;stop-opacity:1"/><stop offset="1" style="stop-color:#f08721;stop-opacity:1"/></linearGradient><linearGradient id="_Linear3" x1="0" y1="0" x2="1" y2="0" gradientUnits="userSpaceOnUse" gradientTransform="matrix(923.722,0,0,923.722,3.35731,726.761)"><stop offset="0" style="stop-color:#399dd2;stop-opacity:1"/><stop offset="0.34" style="stop-color:#efcb16;stop-opacity:1"/><stop offset="0.62" style="stop-color:#f49f1d;stop-opacity:1"/><stop offset="0.87" style="stop-color:#f08721;stop-opacity:1"/><stop offset="1" style="stop-color:#f08721;stop-opacity:1"/></linearGradient></defs></svg>